<svg xmlns="http://www.w3.org/2000/svg" width="98" height="83" viewBox="0 0 98 83">
    <g fill="none" fill-rule="evenodd">
        <path d="M-22-28h144v144H-22z"/>
        <g transform="translate(2)">
            <rect width="87" height="66" y="11" fill="#F3FBFF" stroke="#37474F" stroke-width="4" rx="7"/>
            <rect width="6" height="18" x="16" fill="#37474F" rx="3"/>
            <rect width="6" height="18" x="63" fill="#37474F" rx="3"/>
            <g fill="#37474F">
                <path d="M19.5 41.46a3.5 3.5 0 0 0-3.5 3.5v.083a3.5 3.5 0 0 0 7 0v-.083a3.5 3.5 0 0 0-3.5-3.5zM19.5 56.92a3.5 3.5 0 0 0-3.5 3.5v.083a3.5 3.5 0 0 0 7 0v-.083a3.5 3.5 0 0 0-3.5-3.5zM34.778 41.46a3.5 3.5 0 0 0-3.5 3.5v.083a3.5 3.5 0 0 0 7 0v-.083a3.5 3.5 0 0 0-3.5-3.5zM34.778 56.92a3.5 3.5 0 0 0-3.5 3.5v.083a3.5 3.5 0 0 0 7 0v-.083a3.5 3.5 0 0 0-3.5-3.5zM50.056 41.46a3.5 3.5 0 0 0-3.5 3.5v.083a3.5 3.5 0 0 0 7 0v-.083a3.5 3.5 0 0 0-3.5-3.5z"/>
                <g>
                    <path d="M19.5 26a3.5 3.5 0 0 0-3.5 3.5v.083a3.5 3.5 0 0 0 7 0V29.5a3.5 3.5 0 0 0-3.5-3.5zM34.778 26a3.5 3.5 0 0 0-3.5 3.5v.083a3.5 3.5 0 0 0 7 0V29.5a3.5 3.5 0 0 0-3.5-3.5zM50.056 26a3.5 3.5 0 0 0-3.5 3.5v.083a3.5 3.5 0 0 0 7 0V29.5a3.5 3.5 0 0 0-3.5-3.5zM65.333 26a3.5 3.5 0 0 0-3.5 3.5v.083a3.5 3.5 0 1 0 7 0V29.5a3.5 3.5 0 0 0-3.5-3.5z"/>
                </g>
            </g>
            <g stroke="#8AC227" stroke-linecap="round" stroke-width="3" transform="translate(63 50)">
                <circle cx="15.5" cy="15.5" r="15.5" fill="#FFF"/>
                <path d="M16 6v10h7"/>
            </g>
        </g>
    </g>
</svg>
