<svg xmlns="http://www.w3.org/2000/svg" width="54" height="98" viewBox="0 0 54 98">
    <g fill="none" fill-rule="evenodd">
        <path d="M-45-23H99v144H-45z"/>
        <g transform="translate(2 2)">
            <rect width="50" height="94" fill="#F3FBFF" stroke="#37474F" stroke-width="4" rx="7"/>
            <g transform="translate(9 1)">
                <path fill="#37474F" d="M1 0h30l-.602 2.118a4 4 0 0 1-3.848 2.906H5.45a4 4 0 0 1-3.848-2.906L1 0z"/>
                <rect width="27.143" height="2" x="2.429" y="86.565" fill="#37474F" rx="1"/>
                <g stroke="#8AC227" stroke-linecap="round" stroke-width="3" transform="translate(.429 30.863)">
                    <ellipse cx="15.5" cy="15.575" fill="#FFF" rx="15.5" ry="15.575"/>
                    <ellipse cx="15.571" cy="13.598" rx="5.571" ry="5.598"/>
                    <path d="M25.935 27.141C24.564 23.196 20.447 20 15.493 20 10.735 20 6.663 22.956 5 27.141"/>
                </g>
            </g>
        </g>
    </g>
</svg>
